<?xml version="1.0" standalone="no"?>
<!DOCTYPE svg PUBLIC "-//W3C//DTD SVG 20010904//EN"
 "http://www.w3.org/TR/2001/REC-SVG-20010904/DTD/svg10.dtd">
<svg version="1.0" xmlns="http://www.w3.org/2000/svg"
 width="200.000000pt" height="200.000000pt" viewBox="0 0 200.000000 200.000000"
 preserveAspectRatio="xMidYMid meet">
<metadata>
Created by potrace 1.16, written by Peter Selinger 2001-2019
</metadata>
<g transform="translate(0.000000,200.000000) scale(0.100000,-0.100000)"
fill="#000000" stroke="none">
<path d="M1327 1915 c-103 -28 -254 -147 -333 -260 l-37 -55 -66 6 c-139 13
-352 -30 -430 -87 -39 -27 -42 -33 -36 -62 4 -18 9 -33 10 -35 2 -2 18 5 37
14 49 27 221 31 330 9 45 -9 84 -18 85 -19 1 -1 -11 -47 -27 -101 -51 -171
-179 -401 -258 -463 -57 -45 -141 -89 -204 -107 -32 -9 -58 -20 -58 -25 0 -13
53 -48 117 -77 84 -38 196 -38 271 1 68 34 123 85 177 160 48 68 104 176 116
221 4 17 18 73 32 125 14 52 29 119 33 148 6 48 9 53 28 48 144 -36 274 -35
350 4 69 35 137 99 165 155 74 149 2 349 -144 398 -57 20 -92 20 -158 2z m144
-66 c87 -62 74 -220 -24 -284 -34 -22 -157 -24 -265 -5 l-69 13 14 56 c31 119
104 218 178 241 47 15 131 4 166 -21z"/>
<path d="M819 1851 c-23 -23 -29 -38 -29 -71 0 -107 140 -139 189 -43 50 98
-82 192 -160 114z"/>
</g>
</svg>
